<svg width="53" height="165" viewBox="0 0 53 165" fill="none" xmlns="http://www.w3.org/2000/svg">
<path d="M0.00169373 160.08L52.4688 160.08L52.4688 158.359L0.00169388 158.359L0.00169373 160.08Z" fill="black"/>
<path d="M0.00169373 156.474L52.4688 156.474L52.4688 155.582L0.0016938 155.582L0.00169373 156.474Z" fill="black"/>
<path d="M0.00283813 153.474L46.1797 153.474L46.1797 150.997L0.00283835 150.997L0.00283813 153.474Z" fill="black"/>
<path d="M0.00283813 148.888L46.1797 148.888L46.1797 147.996L0.00283821 147.996L0.00283813 148.888Z" fill="black"/>
<path d="M0.00283813 145.619L46.1797 145.619L46.1797 143.668L0.00283831 143.668L0.00283813 145.619Z" fill="black"/>
<path d="M0.00283813 142.185L46.1797 142.185L46.1797 141.293L0.00283821 141.293L0.00283813 142.185Z" fill="black"/>
<path d="M0.00283813 140.17L46.1797 140.17L46.1797 139.277L0.00283821 139.277L0.00283813 140.17Z" fill="black"/>
<path d="M0.00283813 138.115L46.1797 138.115L46.1797 135.994L0.00283832 135.994L0.00283813 138.115Z" fill="black"/>
<path d="M0.00283813 133.709L46.1797 133.709L46.1797 132.816L0.00283821 132.816L0.00283813 133.709Z" fill="black"/>
<path d="M0.00283813 129.916L46.1797 129.916L46.1797 129.023L0.00283821 129.023L0.00283813 129.916Z" fill="black"/>
<path d="M0.00283813 130.498L46.1797 130.498L46.1797 130.186L0.00283816 130.186L0.00283813 130.498Z" fill="black"/>
<path d="M0.00283813 123.931L46.1797 123.931L46.1797 123.619L0.00283816 123.619L0.00283813 123.931Z" fill="black"/>
<path d="M0.00283813 108.326L46.1797 108.326L46.1797 108.014L0.00283816 108.014L0.00283813 108.326Z" fill="black"/>
<path d="M0.00283813 97.0916L46.1797 97.0916L46.1797 96.7795L0.00283816 96.7795L0.00283813 97.0916Z" fill="black"/>
<path d="M0.00283813 40.6111L46.1797 40.6111L46.1797 40.299L0.00283816 40.299L0.00283813 40.6111Z" fill="black"/>
<path d="M0.00283813 45.533L46.1797 45.533L46.1797 45.2209L0.00283816 45.2209L0.00283813 45.533Z" fill="black"/>
<path d="M0.00283813 22.1697L46.1797 22.1697L46.1797 21.8576L0.00283816 21.8576L0.00283813 22.1697Z" fill="black"/>
<path d="M0.00283813 10.4939L46.1797 10.4939L46.1797 10.1818L0.00283816 10.1818L0.00283813 10.4939Z" fill="black"/>
<path d="M0.00283813 56.3455L46.1797 56.3455L46.1797 56.0334L0.00283816 56.0334L0.00283813 56.3455Z" fill="black"/>
<path d="M0.00283813 150.283L46.1797 150.283L46.1797 149.971L0.00283816 149.971L0.00283813 150.283Z" fill="black"/>
<path d="M0.00283813 126.959L46.1797 126.959L46.1797 124.379L0.00283836 124.379L0.00283813 126.959Z" fill="black"/>
<path d="M0.00283813 122.322L46.1797 122.322L46.1797 121.43L0.00283821 121.43L0.00283813 122.322Z" fill="black"/>
<path d="M0.00283813 94.3064L46.1797 94.3064L46.1797 93.4141L0.00283821 93.4141L0.00283813 94.3064Z" fill="black"/>
<path d="M0.00283813 120.498L46.1797 120.498L46.1797 119.605L0.00283821 119.605L0.00283813 120.498Z" fill="black"/>
<path d="M0.00283813 118.529L46.1797 118.529L46.1797 117.637L0.00283821 117.637L0.00283813 118.529Z" fill="black"/>
<path d="M0.00283813 114.736L46.1797 114.736L46.1797 113.844L0.00283821 113.844L0.00283813 114.736Z" fill="black"/>
<path d="M0.00283813 111.943L46.1797 111.943L46.1797 109.047L0.00283839 109.047L0.00283813 111.943Z" fill="black"/>
<path d="M0.00283813 107.142L46.1797 107.142L46.1797 106.25L0.00283821 106.25L0.00283813 107.142Z" fill="black"/>
<path d="M0.00283813 103.349L46.1797 103.349L46.1797 102.457L0.00283821 102.457L0.00283813 103.349Z" fill="black"/>
<path d="M0.00283813 100.56L46.1797 100.56L46.1797 97.659L0.00283839 97.659L0.00283813 100.56Z" fill="black"/>
<path d="M0.00283813 95.7556L46.1797 95.7556L46.1797 94.8633L0.00283821 94.8633L0.00283813 95.7556Z" fill="black"/>
<path d="M0.00283813 90.9822L46.1797 90.9822L46.1797 90.0899L0.00283821 90.0899L0.00283813 90.9822Z" fill="black"/>
<path d="M0.00283813 88.9588L46.1797 88.9588L46.1797 86.4866L0.00283835 86.4866L0.00283813 88.9588Z" fill="black"/>
<path d="M0.00284195 84.3767L52.6016 84.3767L52.6016 83.4844L0.00284203 83.4844L0.00284195 84.3767Z" fill="black"/>
<path d="M0.00284195 80.8025L52.6016 80.8025L52.6016 79.9102L0.00284203 79.9102L0.00284195 80.8025Z" fill="black"/>
<path d="M0.00283813 76.783L46.1797 76.783L46.1797 75.8907L0.00283821 75.8906L0.00283813 76.783Z" fill="black"/>
<path d="M0.00283813 75.3103L46.1797 75.3103L46.1797 74.418L0.00283821 74.418L0.00283813 75.3103Z" fill="black"/>
<path d="M0.00283813 72.9548L46.1797 72.9549L46.1797 71.375L0.00283827 71.375L0.00283813 72.9548Z" fill="black"/>
<path d="M0.00283813 69.197L46.1797 69.197L46.1797 68.3047L0.00283821 68.3047L0.00283813 69.197Z" fill="black"/>
<path d="M0.00283813 66.2244L46.1797 66.2244L46.1797 63.679L0.00283836 63.679L0.00283813 66.2244Z" fill="black"/>
<path d="M0.00283813 61.6033L46.1797 61.6033L46.1797 60.7109L0.00283821 60.7109L0.00283813 61.6033Z" fill="black"/>
<path d="M0.00283813 57.8103L46.1797 57.8103L46.1797 56.918L0.00283821 56.918L0.00283813 57.8103Z" fill="black"/>
<path d="M0.00283813 54.6658L46.1797 54.6658L46.1797 52.4764L0.00283833 52.4764L0.00283813 54.6658Z" fill="black"/>
<path d="M0.00283813 50.2205L46.1797 50.2205L46.1797 49.3282L0.00283821 49.3281L0.00283813 50.2205Z" fill="black"/>
<path d="M0.00283813 47.408L46.1797 47.408L46.1797 46.5157L0.00283821 46.5156L0.00283813 47.408Z" fill="black"/>
<path d="M0.00283813 42.6306L46.1797 42.6306L46.1797 41.7383L0.00283821 41.7383L0.00283813 42.6306Z" fill="black"/>
<path d="M0.00283813 37.3064L46.1797 37.3064L46.1797 35.5364L0.00283829 35.5364L0.00283813 37.3064Z" fill="black"/>
<path d="M0.00283813 35.0447L46.1797 35.0447L46.1797 34.1524L0.00283821 34.1524L0.00283813 35.0447Z" fill="black"/>
<path d="M0.00283813 30.2634L46.1797 30.2634L46.1797 29.3711L0.00283821 29.3711L0.00283813 30.2634Z" fill="black"/>
<path d="M0.00283813 27.9002L46.1797 27.9002L46.1797 26.1155L0.00283829 26.1155L0.00283813 27.9002Z" fill="black"/>
<path d="M0.00283813 23.658L46.1797 23.658L46.1797 22.7656L0.00283821 22.7656L0.00283813 23.658Z" fill="black"/>
<path d="M0.00283813 19.865L46.1797 19.865L46.1797 18.9727L0.00283821 18.9727L0.00283813 19.865Z" fill="black"/>
<path d="M0.00283813 16.5134L46.1797 16.5134L46.1797 14.7288L0.00283829 14.7288L0.00283813 16.5134Z" fill="black"/>
<path d="M0.00283813 12.2713L46.1797 12.2713L46.1797 11.3789L0.00283821 11.3789L0.00283813 12.2713Z" fill="black"/>
<path d="M0.00283813 8.47829L46.1797 8.47829L46.1797 6.07922L0.00283834 6.07922L0.00283813 8.47829Z" fill="black"/>
<path d="M0.00284195 4.68532L52.6016 4.68532L52.6016 3.79299L0.00284203 3.79299L0.00284195 4.68532Z" fill="black"/>
<path d="M0.00284195 0.892349L52.6016 0.892354L52.6016 1.07459e-05L0.00284203 6.14757e-06L0.00284195 0.892349Z" fill="black"/>
<path d="M52.6016 164.783L52.231 164.783L51.7434 164.295C50.656 163.149 50.0758 162.633 49.4029 162.628C49.2837 162.615 49.1632 162.63 49.0504 162.67C48.9375 162.71 48.8352 162.776 48.7509 162.861C48.6666 162.946 48.6026 163.049 48.5635 163.162C48.5244 163.276 48.5113 163.396 48.5251 163.515C48.5338 163.875 48.6684 164.22 48.9055 164.49L48.4813 164.681C48.1837 164.327 48.0213 163.88 48.0229 163.418C48.0069 163.239 48.029 163.06 48.0878 162.89C48.1465 162.721 48.2405 162.566 48.3636 162.436C48.4868 162.306 48.6361 162.204 48.8019 162.136C48.9676 162.068 49.1459 162.036 49.3248 162.043C50.1538 162.043 50.8218 162.642 51.7287 163.588L52.0603 163.944L52.0603 161.935L52.5479 161.935L52.6016 164.783Z" fill="black"/>
<path d="M51.464 140.099C51.1962 140.096 50.9364 140.008 50.7212 139.849C50.5059 139.69 50.3461 139.467 50.2644 139.212C50.1863 139.417 50.0491 139.594 49.8703 139.72C49.6915 139.847 49.479 139.918 49.2599 139.924C49.0887 139.917 48.9206 139.875 48.7663 139.8C48.6119 139.726 48.4745 139.62 48.3625 139.49C48.2505 139.361 48.1664 139.209 48.1153 139.045C48.0641 138.882 48.0471 138.709 48.0653 138.539C48.0448 138.38 48.0578 138.218 48.1033 138.064C48.1488 137.91 48.2257 137.768 48.3294 137.645C48.4331 137.523 48.5612 137.423 48.7054 137.353C48.8497 137.283 49.0069 137.243 49.1673 137.237C49.3958 137.24 49.6181 137.312 49.8052 137.443C49.9922 137.575 50.1352 137.759 50.2156 137.973C50.2912 137.72 50.4453 137.498 50.6558 137.338C50.8662 137.179 51.1219 137.09 51.3859 137.086C51.573 137.096 51.7562 137.143 51.9244 137.226C52.0925 137.308 52.242 137.425 52.3638 137.567C52.4856 137.709 52.5772 137.875 52.6329 138.054C52.6886 138.233 52.7073 138.421 52.6879 138.607C52.6781 139.524 52.1174 140.099 51.464 140.099ZM51.4347 137.691C50.8934 137.691 50.6301 138.066 50.4594 138.666C50.4982 138.885 50.6108 139.084 50.7784 139.231C50.9461 139.377 51.1587 139.462 51.381 139.47C51.4979 139.474 51.6143 139.453 51.7225 139.409C51.8307 139.365 51.9284 139.298 52.0089 139.213C52.0895 139.128 52.1513 139.028 52.1901 138.917C52.229 138.807 52.2441 138.69 52.2344 138.573C52.2445 138.462 52.2314 138.349 52.1958 138.243C52.1603 138.137 52.1032 138.039 52.0281 137.956C51.9529 137.874 51.8614 137.807 51.7592 137.761C51.6571 137.716 51.5466 137.691 51.4347 137.691ZM49.1965 139.358C49.6451 139.358 49.8841 139.017 50.0255 138.5C49.9814 138.314 49.8782 138.148 49.7314 138.025C49.5845 137.903 49.402 137.832 49.2112 137.822C49.1114 137.816 49.0115 137.832 48.9184 137.868C48.8253 137.904 48.741 137.96 48.6716 138.032C48.6021 138.104 48.549 138.19 48.5158 138.284C48.4827 138.378 48.4704 138.479 48.4798 138.578C48.471 138.677 48.483 138.777 48.515 138.872C48.5471 138.966 48.5984 139.053 48.6659 139.126C48.7334 139.2 48.8154 139.258 48.9068 139.298C48.9982 139.338 49.0968 139.359 49.1965 139.358Z" fill="black"/>
<path d="M52.1709 132.651C52.1866 132.488 52.1866 132.325 52.1709 132.163C52.1289 131.813 51.9769 131.485 51.7369 131.227C51.4223 130.895 51.0012 130.685 50.5472 130.632L50.5472 130.656C50.7035 130.783 50.8288 130.944 50.9133 131.126C50.9978 131.309 51.0394 131.508 51.0348 131.709C51.0384 131.888 51.0051 132.066 50.9369 132.231C50.8687 132.396 50.767 132.545 50.6384 132.67C50.5097 132.794 50.3568 132.89 50.1893 132.952C50.0217 133.014 49.843 133.041 49.6646 133.031C49.4588 133.039 49.2536 133.005 49.0611 132.932C48.8685 132.859 48.6927 132.748 48.5439 132.606C48.3952 132.463 48.2766 132.292 48.1952 132.103C48.1138 131.914 48.0712 131.711 48.0701 131.505C48.0701 130.588 48.8161 130.042 49.9571 130.042C50.3414 130.021 50.726 130.078 51.0873 130.211C51.4486 130.343 51.7791 130.548 52.0588 130.812C52.396 131.169 52.6067 131.626 52.6585 132.114C52.6895 132.298 52.701 132.484 52.6927 132.67L52.1709 132.651ZM49.5963 132.431C49.7184 132.448 49.8427 132.438 49.9608 132.403C50.0788 132.367 50.1878 132.307 50.2803 132.225C50.3729 132.144 50.4468 132.043 50.4971 131.931C50.5473 131.818 50.5727 131.696 50.5715 131.573C50.5784 131.395 50.5366 131.219 50.4506 131.064C50.3647 130.908 50.2379 130.779 50.0839 130.69C50.0182 130.65 49.9418 130.629 49.8645 130.632C49.099 130.632 48.5138 130.915 48.5138 131.549C48.5089 132.065 48.9478 132.431 49.5963 132.431Z" fill="black"/>
<path d="M51.9033 126.644C52.0799 126.348 52.1773 126.012 52.1861 125.668C52.1861 124.893 51.6984 124.649 51.3181 124.659C50.6939 124.659 50.4258 125.23 50.4258 125.815L50.4258 126.151L49.9674 126.151L49.9674 125.815C49.9674 125.376 49.7431 124.815 49.2116 124.815C48.8508 124.815 48.5387 125.044 48.5387 125.6C48.5473 125.921 48.6489 126.233 48.8313 126.497L48.3924 126.653C48.1656 126.305 48.0454 125.899 48.0462 125.483C48.0462 124.601 48.5728 124.201 49.1141 124.201C49.3559 124.205 49.5896 124.289 49.7797 124.439C49.9697 124.588 50.1058 124.796 50.1673 125.03C50.2133 124.757 50.3541 124.51 50.5646 124.332C50.7752 124.153 51.0421 124.055 51.3181 124.054C52.0349 124.054 52.6639 124.615 52.6639 125.688C52.6688 126.097 52.5626 126.5 52.3567 126.853L51.9033 126.644Z" fill="black"/>
<path d="M48.1253 117.66L48.5251 117.66L52.6016 119.61L52.6016 120.239L48.6422 118.289L48.6422 120.478L48.1545 120.478L48.1253 117.66Z" fill="black"/>
<path d="M52.6016 114.357L52.231 114.357L51.7434 113.87C50.656 112.729 50.0758 112.212 49.4029 112.202C49.2837 112.189 49.1632 112.204 49.0504 112.244C48.9375 112.285 48.8352 112.35 48.7509 112.435C48.6666 112.52 48.6026 112.623 48.5635 112.736C48.5244 112.85 48.5113 112.97 48.5251 113.089C48.5382 113.441 48.6726 113.777 48.9055 114.04L48.4813 114.235C48.1826 113.881 48.0201 113.431 48.0229 112.967C48.0068 112.789 48.0289 112.61 48.0877 112.441C48.1465 112.272 48.2406 112.117 48.3638 111.988C48.487 111.858 48.6365 111.756 48.8022 111.689C48.9679 111.622 49.1461 111.59 49.3248 111.597C50.1538 111.597 50.8218 112.197 51.7287 113.138L52.0603 113.499L52.0603 111.485L52.5479 111.485L52.6016 114.357Z" fill="black"/>
<path d="M48.5496 105.58C48.5438 105.733 48.5536 105.887 48.5789 106.038C48.6344 106.437 48.8205 106.806 49.1082 107.087C49.3958 107.369 49.7688 107.547 50.1685 107.594C49.9384 107.414 49.7721 107.165 49.6938 106.884C49.6156 106.603 49.6296 106.304 49.7338 106.031C49.838 105.758 50.0269 105.526 50.2728 105.368C50.5186 105.211 50.8085 105.136 51.0998 105.156C51.3004 105.145 51.5012 105.174 51.6902 105.242C51.8793 105.31 52.0527 105.415 52.2001 105.552C52.3475 105.688 52.466 105.853 52.5484 106.037C52.6308 106.22 52.6754 106.418 52.6797 106.619C52.6797 107.594 51.9336 108.203 50.7682 108.203C50.0219 108.228 49.2963 107.956 48.7495 107.448C48.3791 107.055 48.1479 106.551 48.0912 106.014C48.0678 105.867 48.0564 105.719 48.0571 105.57L48.5496 105.58ZM51.1339 105.756C51.0042 105.739 50.8723 105.75 50.7473 105.789C50.6223 105.828 50.5072 105.893 50.4099 105.981C50.3126 106.068 50.2354 106.176 50.1837 106.296C50.1319 106.416 50.1068 106.546 50.11 106.677C50.1119 106.859 50.1645 107.036 50.2618 107.19C50.3592 107.343 50.4974 107.466 50.661 107.545C50.7419 107.593 50.8351 107.617 50.9292 107.613C51.6655 107.613 52.2115 107.262 52.2115 106.638C52.2115 106.107 51.7727 105.756 51.1339 105.756Z" fill="black"/>
<path d="M48.6909 100.605L49.1102 101.381L48.647 101.498L48.1253 100.523L48.1253 100.035L52.6016 100.035L52.6016 100.62L48.6909 100.605Z" fill="black"/>
<path d="M52.6016 56.9939L52.231 56.9939L51.7434 56.5063C50.656 55.3653 50.0758 54.8484 49.4029 54.8387C49.2834 54.827 49.1629 54.8421 49.0501 54.8831C48.9373 54.924 48.835 54.9896 48.7508 55.0752C48.6667 55.1608 48.6028 55.2641 48.5637 55.3775C48.5246 55.491 48.5115 55.6118 48.5251 55.731C48.5393 56.0807 48.6737 56.4148 48.9055 56.677L48.4813 56.872C48.1826 56.5173 48.0201 56.0679 48.0229 55.6042C48.0068 55.4261 48.0289 55.2465 48.0877 55.0776C48.1465 54.9087 48.2406 54.7542 48.3638 54.6245C48.487 54.4949 48.6365 54.393 48.8022 54.3256C48.9679 54.2583 49.1461 54.2271 49.3248 54.234C50.1538 54.234 50.8218 54.8338 51.7287 55.7749L52.0603 56.1357L52.0603 54.1219L52.5479 54.1219L52.6016 56.9939Z" fill="black"/>
<path d="M48.1253 47.8513L48.5251 47.8513L52.6016 49.8017L52.6016 50.4308L48.6422 48.4803L48.6422 50.6697L48.1545 50.6697L48.1253 47.8513Z" fill="black"/>
<path d="M51.9033 44.4141C52.0801 44.1189 52.1775 43.7829 52.1861 43.4389C52.1861 42.6587 51.6984 42.4149 51.3181 42.4247C50.6939 42.4247 50.4258 42.9952 50.4258 43.5803L50.4258 43.9168L49.9674 43.9167L49.9674 43.5803C49.9674 43.1414 49.7431 42.6051 49.2116 42.6051C48.8508 42.6051 48.5387 42.8343 48.5387 43.3901C48.5464 43.7114 48.6481 44.0233 48.8313 44.2873L48.3924 44.4482C48.1658 44.0983 48.0455 43.6901 48.0462 43.2731C48.0462 42.3954 48.5728 41.9955 49.1141 41.9955C49.3555 41.9992 49.5891 42.0818 49.7792 42.2305C49.9694 42.3793 50.1057 42.5862 50.1673 42.8196C50.2081 42.543 50.3465 42.2901 50.5576 42.1068C50.7687 41.9234 51.0385 41.8217 51.3181 41.82C52.0349 41.82 52.6639 42.3808 52.6639 43.4535C52.6688 43.8626 52.5626 44.2654 52.3567 44.6189L51.9033 44.4141Z" fill="black"/>
<path d="M48.5496 35.788C48.5439 35.9397 48.5537 36.0917 48.5789 36.2415C48.6344 36.6401 48.8205 37.009 49.1082 37.2905C49.3958 37.572 49.7688 37.7501 50.1685 37.7969C49.9384 37.6171 49.7721 37.3683 49.6938 37.087C49.6156 36.8057 49.6296 36.5067 49.7338 36.234C49.838 35.9612 50.0269 35.729 50.2728 35.5715C50.5186 35.414 50.8085 35.3395 51.0998 35.3589C51.3003 35.3484 51.5008 35.3782 51.6895 35.4465C51.8783 35.5148 52.0513 35.6203 52.1986 35.7567C52.3459 35.893 52.4644 36.0576 52.547 36.2405C52.6296 36.4234 52.6747 36.6211 52.6797 36.8217C52.6797 37.7969 51.9336 38.4065 50.7682 38.4065C50.0219 38.4309 49.2963 38.1592 48.7495 37.6507C48.3773 37.2589 48.1457 36.7547 48.0912 36.2171C48.068 36.072 48.0566 35.9252 48.0571 35.7782L48.5496 35.788ZM51.1339 35.9586C51.0042 35.9417 50.8723 35.9531 50.7473 35.9919C50.6223 36.0308 50.5072 36.0963 50.4099 36.1838C50.3126 36.2714 50.2354 36.379 50.1837 36.4992C50.1319 36.6194 50.1068 36.7494 50.11 36.8802C50.1119 37.0619 50.1645 37.2394 50.2618 37.3927C50.3592 37.5461 50.4974 37.6692 50.661 37.7482C50.7419 37.7964 50.8351 37.8201 50.9292 37.8165C51.6655 37.8165 52.2115 37.4654 52.2115 36.8412C52.2115 36.3097 51.7727 35.9586 51.1339 35.9586Z" fill="black"/>
<path d="M48.6909 30.7852L49.1102 31.5605L48.647 31.6775L48.1253 30.7023L48.1253 30.1854L52.6016 30.1854L52.6016 30.7852L48.6909 30.7852Z" fill="black"/>
<path d="M50.3148 22.9317C51.8361 22.9317 52.6797 23.4973 52.6797 24.492C52.6797 25.3648 51.8556 25.9549 50.3782 25.9549C48.9007 25.9549 48.0474 25.3063 48.0474 24.3945C48.0474 23.4827 48.891 22.9317 50.3148 22.9317ZM50.383 25.3697C51.5484 25.3697 52.2115 25.0138 52.2115 24.4628C52.2115 23.9117 51.485 23.546 50.344 23.546C49.203 23.546 48.5155 23.8289 48.5155 24.453C48.5155 24.9796 49.164 25.3648 50.383 25.3648L50.383 25.3697Z" fill="black"/>
</svg>
