<svg xmlns="http://www.w3.org/2000/svg" width="451" height="253" fill="none" viewBox="0 0 451 253"><g clip-path="url(#a)"><path fill="#000" d="M136.32 8.23s11.3 63.16-2.12 120.12l30.42-3.75s-1.46-44.49-.04-48.34l25.82-2.5-4.51 48.69 29.78-3.18S212.02 16.05 222.28 0l-31.02 3.72-1.23 54.92-25.13 1.02 4.06-51.44h-32.63zM232.73 49.82l23.69-.8-5.36 64.05-21.88.9s7.44-59.41 3.55-64.15M265.18 16.27l-2.61 25.23 24.19-5.91-4.04 72.89 23.27-.22 4.21-75.9 24.9-2.25 2.52-23.73s-68.37 12.53-72.45 9.88zM257.546 28.71c.399-7.202-5.603-13.391-13.406-13.823s-14.451 5.056-14.85 12.257c-.399 7.202 5.603 13.39 13.406 13.823s14.452-5.056 14.85-12.258M81.61 135.84l.05 14.63 7.5-.73-2.62 47.34-6.5.79-.13 15.34 49.06-5.17-.4-16.09-23.79 2.4s-.92 1.1-.7-6.97c.04-1.4.05-2.79.02-4.19l-.15-6.27 18.31-1.32.64-11.89-18.09 1.14.49-13.65 22.81-2.49 2.07-17.99-48.55 5.12zM255.49 128.65l.16 12.72 7.5-.73-2.62 47.34-6.5.79-.13 15.34 47.44-4.76-.4-16.09-22.17 1.99s-.92 1.1-.7-6.97c.04-1.4.05-2.79.02-4.19l-.15-6.27 18.31-1.32.64-11.89-18.09 1.14.49-13.65 22.81-2.49.34-15.74-46.93 4.77zM137.93 146.95l-.72 12.94 6.09.34s-4.11 60.45-6.8 67.55l22.74-2.11.3-38.03 17.9-3.01.7-12.56-16.96 2.99.17-16.9 22.26-2.2.93-16.74-46.61 7.72zM360.72 155.44l1.04-18.81s-14.3-12.73-36.99-4.88c-12.29 4.25-14.5 12.3-13.94 18.78.42 4.84 2.51 9.39 5.75 13.01l2.59 2.89c1.64 1.84 3.56 3.41 5.68 4.66 7.64 4.53 26.45 16.56 21.95 22.73-5.61 7.69-17.11 2.34-17.11 2.34l-18.1-13.74-1.67 30.09 4.52-5.06s42.69 24 52.87-6.56c8.34-25.04-22.21-34.41-29.2-41.5-2.37-2.4-4.91-4.71-4.62-8.07.28-3.27 2.6-5.89 11.07-2.44l16.14 6.55z"/><path fill="#000" d="m376.13 126.88 26.55.42-3.84 45.56 20.33-1.24 4.12-55.35 26.89-1.08s-15.65 116.2-6.74 121.7l-28.94-.03 4.54-48.68-21.36.92-1.45 45.17-28.47 1.05s14.94-89.15 8.38-108.45zM116.61 223.52l-8.42 3.61c-10.2 4.37-22.09 1.74-29.39-6.61-6.71-7.68-11.27-17.81-13.34-23.01-1.59-3.99-4.13-7.55-7.51-10.2-6.92-5.43-13.02-4.19-13.02-4.19s34.65-7.58 30.1-40.96C70.47 108.77 1.16 127.9 1.16 127.9L0 148.82l14.43-2.93s.1.02.11.06c2.53 8.75-8.75 89.55-8.75 89.55l27.38-2.6.5-40.01c1.47-.48 3.01-.05 4.37.67 2.27 1.21 3.97 3.27 4.89 5.68 3.69 9.72 18.27 45.23 36.47 51.31 21.12 7.06 37.37-6.93 37.37-6.93l-.16-20.11zm-83.11-46.3 1.87-33.67s16.07-2.73 17.05 14.53-18.92 19.14-18.92 19.14M243.86 199.74c-6.76-15.55-15.39-16.57-15.39-16.57s22.8-4.24 20.83-26.91-24.95-22.05-24.95-22.05l-30.14 2.95-.91 16.34 4.71.26-6.45 73.81 20.23-1.66 1.1-36.39 6.42-.22s13.49 73.19 65.41 44.77l1.07-19.28s-28.82 15.08-41.93-15.05m-30.27-23.29 1.51-27.21s15.28-2.83 14.33 11.59c-1 15.15-15.84 15.62-15.84 15.62"/><path fill="#39b54a" d="M2.81 89.65C6.29 83.32 12.01 73 19.5 71.11c1.52-.34 3.39-.34 4.85.37 1.98.96 3.75 2.35 5.47 3.51 4.8 3.27 9.71 7.09 14.6 10.12l.1.04c0-.01.03 0-.03-.03-.04-.04-.39-.11-.29-.1.83-.06 1.34-.38 2.04-.97 1.94-1.7 3.52-4.47 5.06-6.83 2-3.07 3.87-6.07 7-8.54 3.84-3.18 9.63-3.76 13.99-1.25 3.28 1.72 5.95 4.73 8.46 7.06 2.07 1.82 3.83 3.72 6.47 2.66 2.08-1 3.97-3.28 6.13-5.15 2.7-2.46 6.45-4.47 10.29-4.28 6.14.2 7.99 5.21 10.79 9.44 2.43 3.68 6.9 4.71 11.14 4.49.31-.02.57.22.58.53 0 .21-.1.4-.27.5-3.6 2.23-9.18 2.91-13.39.62-2.42-1.19-4.71-3.56-6.37-5.27-.6-.57-1.59-1.63-2.16-1.52-.04.05-.02.13-.09.17-.45.1-.83.27-1.21.52-1.93 1.32-3.38 3.65-5.33 5.73-3.07 3.55-7.85 6.19-12.75 5.66-10.71-.86-14.07-13.16-18.96-13.71-7.11.56-11.25 18.45-22.36 16.76-2.16-.37-3.74-2.07-5.35-3.31-3.64-3.03-7.5-6.39-11.08-9.49-1.36-1.17-2.66-2.33-4.01-3.31-.31-.21-.59-.4-.94-.5-3.32-.7-6.61 2.05-8.99 4.2a42 42 0 0 0-3.26 3.41c-2.1 2.39-4.04 4.95-5.9 7.58-.17.25-.51.31-.75.13a.536.536 0 0 1-.16-.69zM346.14 50.37c-1.59 9.36-4.91 28.19-6.58 37.53l-3.36-1.78a8870 8870 0 0 1 30.5-33.86c3.39-3.76 6.81-7.5 10.22-11.23 2.65-2.86 7.36-.33 6.48 3.43-2.18 9.05-7.62 31.77-9.54 40.56-1.01 4.5-2.02 9-3.1 13.47l-8.53-5.81c5.52-4.29 11.15-8.42 16.89-12.42 17.32-11.95 34.93-23.46 53.58-33.3a.54.54 0 0 1 .63.86c-4.98 5.02-10.15 9.79-15.39 14.46-10.48 9.31-21.29 18.19-32.35 26.79-5.6 4.34-11.29 8.54-17.11 12.58-4.2 2.92-9.72-1.12-8.31-5.97 4.54-15.02 11.42-37.69 15.81-52.99l6.43 3.62c-6.22 6.18-15.28 15.09-21.64 21.32-5.4 5.3-16.31 15.96-21.73 21.24-.76.83-2.08.88-2.86.06-.49-.5-.65-1.21-.5-1.84l4.66-18.47 4.73-18.46c.19-.65 1.15-.45 1.05.23z"/></g><defs><clipPath id="a"><path fill="#fff" d="M0 0h450.17v252.55H0z"/></clipPath></defs></svg>