<svg xmlns="http://www.w3.org/2000/svg" width="349" height="562" fill="none" viewBox="0 0 349 562" xmlns:xlink="http://www.w3.org/1999/xlink"><g filter="url(#a)"><path d="M462.7 216.3h-.3l2.5-7.7c19.4-67.4-16.6-135-80.5-150.9-64-16-131.5 25.8-150.9 93.2l-2 7.8h-.2c-64-16-131.5 25.8-151 93.1s16.7 135 80.6 151h.3c-14.6 64.7 21 127.7 82.4 143s126.2-22.6 148.4-85.4h.3c63.9 16 131.4-25.8 150.9-93.2 19.4-67.4-16.6-135-80.5-150.9"/></g><defs><filter id="a" width="473.3" height="494.9" x="75.1" y="54.3" color-interpolation-filters="sRGB" filterUnits="userSpaceOnUse"><feFlood flood-opacity="0" result="BackgroundImageFix"/><feBlend in="SourceGraphic" in2="BackgroundImageFix" result="shape"/><feTurbulence baseFrequency="0.3 0.3" numOctaves="3" result="noise" seed="6703" stitchTiles="stitch" type="fractalNoise"/><feColorMatrix in="noise" result="alphaNoise" type="luminanceToAlpha"/><feComponentTransfer in="alphaNoise" result="coloredNoise1"><feFuncA tableValues="0 0 0 0 0 0 0 0 0 1 1 1 1 1 1 1 1 1 1 1 1 1 1 1 1 1 1 1 1 1 1 1 1 1 1 1 1 1 1 1 0 0 0 0 0 0 0 0 0 0 0 0 0 0 0 0 0 0 0 0 0 0 0 0 0 0 0 0 0 0 0 0 0 0 0 0 0 0 0 0 0 0 0 0 0 0 0 0 0 0 0 0 0 0 0 0 0 0 0 0" type="discrete"/></feComponentTransfer><feComposite in="coloredNoise1" in2="shape" operator="in" result="noise1Clipped"/><feFlood flood-color="rgba(255, 255, 255, 0.15)" result="color1Flood"/><feComposite in="color1Flood" in2="noise1Clipped" operator="in" result="color1"/><feMerge result="effect1_noise_476_4106"><feMergeNode in="shape"/><feMergeNode in="color1"/></feMerge></filter></defs></svg>